<?xml version="1.0" standalone="no"?>
<!DOCTYPE svg PUBLIC "-//W3C//DTD SVG 20010904//EN"
 "http://www.w3.org/TR/2001/REC-SVG-20010904/DTD/svg10.dtd">
<svg version="1.0" xmlns="http://www.w3.org/2000/svg"
 width="100.000000pt" height="100.000000pt" viewBox="0 0 500.000000 500.000000"
 preserveAspectRatio="xMidYMid meet">

<g transform="translate(0.000000,500.000000) scale(0.100000,-0.100000)"
fill="#000000" stroke="none">
<path d="M0 2500 l0 -2500 2500 0 2500 0 0 2500 0 2500 -2500 0 -2500 0 0
-2500z m1595 1325 c252 -64 411 -257 461 -556 l18 -109 442 0 442 0 12 73 c39
232 142 411 295 513 66 44 184 81 284 90 l81 7 0 -1099 c0 -707 -4 -1122 -10
-1163 -26 -160 -149 -301 -318 -364 -56 -20 -72 -21 -772 -25 -784 -3 -786 -3
-909 57 -62 30 -140 101 -166 152 -51 97 -49 52 -52 1274 -2 626 -1 1145 1
1152 7 18 117 17 191 -2z"/>
<path d="M1490 3751 c-6 -78 4 -2209 10 -2231 26 -91 94 -160 200 -202 53 -22
66 -23 410 -23 l355 0 3 51 c3 49 2 51 -38 79 -92 64 -164 170 -176 259 -17
123 110 221 218 168 37 -19 42 -20 64 -5 56 36 162 11 207 -48 24 -34 33 -106
18 -152 -22 -65 -89 -155 -151 -203 l-60 -47 0 -54 0 -53 313 0 c226 0 328 4
369 14 121 28 234 127 277 241 21 55 21 68 21 1132 l0 1075 -47 -7 c-113 -17
-238 -90 -299 -177 -80 -111 -133 -261 -143 -408 l-6 -85 -522 -3 c-288 -1
-523 1 -523 5 -1 58 -25 215 -41 273 -49 182 -179 331 -329 379 -51 16 -130
29 -130 22z m1802 -1463 c117 -54 189 -166 190 -294 1 -133 -71 -245 -192
-303 -45 -21 -69 -26 -135 -26 -69 0 -88 4 -138 29 -167 85 -234 297 -144 455
86 152 264 210 419 139z m-1363 -244 c45 -57 11 -134 -59 -134 -46 0 -80 35
-80 83 0 72 95 106 139 51z"/>
<path d="M3099 2051 c-35 -35 -38 -77 -8 -115 16 -21 29 -26 64 -26 70 0 108
55 80 114 -29 60 -90 72 -136 27z"/>
<path d="M2352 1747 c-42 -44 -22 -116 55 -198 54 -58 95 -83 123 -74 30 9
126 108 149 153 29 57 27 95 -5 121 -56 44 -110 20 -143 -64 l-19 -50 -24 52
c-14 29 -31 59 -38 68 -19 23 -73 19 -98 -8z"/>
</g>
</svg>
